<?xml version="1.0" encoding="utf-8"?>
<!-- Generator: Adobe Illustrator 22.1.0, SVG Export Plug-In . SVG Version: 6.00 Build 0)  -->
<svg version="1.1" id="Layer_1" xmlns="http://www.w3.org/2000/svg" xmlns:xlink="http://www.w3.org/1999/xlink" x="0px" y="0px"
	 viewBox="0 0 2300 2300" style="enable-background:new 0 0 2300 2300;" xml:space="preserve">
<style type="text/css">
	.st0{enable-background:new    ;}
	.st1{fill:none;}
	.st2{fill:#F7C953;}
</style>
<text transform="matrix(1 0 0 1 1105.4215 2832.6633)" style="font-family:'ArialMT'; font-size:12px;">H</text>
<polygon class="st1" points="1106.8,2603.6 1112.8,2603.6 1112.8,2603.6 "/>
<rect x="-0.1" y="-7.2" class="st2" width="2300" height="2300"/>
<g>
	<path d="M366.5,1095.4c0-6.7,7.1-16.1,21-16.1c11.2,0,16.5,7.9,16.5,18c0,17.2-16.9,40.1-45.7,40.1h-99.3l95.6-167.2h-21
		c-11.6,0-20.6,0.7-20.6,6c0,1.9,4.1-0.4,4.1,8.2c0,13.9-10.5,19.9-20.2,19.9c-8.6,0-17.2-5.6-17.2-16.5c0-15.4,16.9-37.9,43.5-37.9
		h96.3l-91.8,158.6c6.4,0.4,18.4,2.2,28.5,2.2c9,0,16.5-1.5,17.6-7.5C368.7,1102.9,366.5,1099.5,366.5,1095.4z"/>
	<path d="M599.3,950l-27,127.5c-1.1,4.9-1.5,8.6-1.5,12c0,10.5,4.9,13.9,15.4,13.9c3.4,0,5.6-0.4,8.2-1.5
		c-10.1,26.2-17.2,37.9-37.5,37.9s-33.7-13.1-36.7-34.9c-11.2,17.2-29.2,34.9-55.9,34.9c-25.5,0-49.9-15.7-49.9-60.4
		c0-50.6,31.1-131.2,96.3-131.2c21.4,0,30.4,8.2,30.4,19.1v2.6l4.1-19.9H599.3z M470,1074c0,28.9,12,29.2,18.7,29.2
		c10.9,0,26.6-11.2,31.1-33l18-84.7c0-4.5-3.4-14.2-15.4-14.2C490.6,971.3,470,1038.8,470,1074z M706.1,1095.4
		c0-6.7,7.1-16.1,21-16.1c11.2,0,16.5,7.9,16.5,18c0,17.2-16.9,40.1-45.7,40.1h-99.3l95.6-167.2h-21c-11.6,0-20.6,0.7-20.6,6
		c0,1.9,4.1-0.4,4.1,8.2c0,13.9-10.5,19.9-20.2,19.9c-8.6,0-17.2-5.6-17.2-16.5c0-15.4,16.9-37.9,43.5-37.9H759l-91.8,158.6
		c6.4,0.4,18.4,2.2,28.5,2.2c9,0,16.5-1.5,17.6-7.5C708.4,1102.9,706.1,1099.5,706.1,1095.4z"/>
	<path d="M938.9,950l-27,127.5c-1.1,4.9-1.5,8.6-1.5,12c0,10.5,4.9,16.1,15.4,16.1c14.6,0,24.7-16.5,30.4-35.2h15.7
		c-21.4,61.1-55.1,69.4-75.4,69.4c-21,0-34.5-12-36.7-34.5c-11.6,17.2-29.2,34.5-55.9,34.5c-25.5,0-49.9-15.7-49.9-60.4
		c0-50.6,31.1-131.2,96.3-131.2c21.4,0,30.4,8.2,30.4,19.1v2.6L885,950H938.9z M809.6,1074c0,28.9,12,29.2,18.7,29.2
		c10.9,0,26.6-11.2,31.1-33l18-84.7c0-4.5-3.4-14.2-15.4-14.2C830.2,971.3,809.6,1038.8,809.6,1074z"/>
	<path d="M1143.3,982.6c-13.5,0-23.6,15.7-29.2,34.5l-25.5,120.3h-54l27.4-129.3c0.8-3,1.1-6,1.1-9.4c0-8.2-3-16.5-11.2-16.5
		c-14.6,0-24.7,16.1-30.4,34.9l-25.5,120.3h-54L981.7,950h54l-4.1,19.5c15.7-18,32.6-21.4,45.7-21.4c19.9,0,34.5,9,38.6,32.2
		c18-27.7,38.2-31.9,52.1-31.9c24,0,41.6,12.4,41.6,42.4c0,30.4-18,75.7-18,96.7c0,9.4,3.7,15.7,15,15.7c16.5,0,23.2-13.5,31.5-33
		h15.7c-21,61.5-49.9,69.4-69.7,69.4c-32.6,0-44.2-21-44.2-42.4c0-25.5,16.9-71.6,16.9-95.6C1156.8,989.3,1152.3,982.6,1143.3,982.6
		z"/>
	<path d="M1315.7,1108.2c29.6,0,47.6-16.5,66.4-37.9h12.7c-21.4,34.5-53.2,69.4-103.1,69.4c-35.2,0-58.5-17.2-58.5-59.6
		c0-43.1,24.4-133.5,101.2-133.5c33.4,0,41.2,17.2,41.2,36c0,43.1-41.2,76.5-86.2,79.1c-0.4,5.2-0.8,10.5-0.8,15
		C1288.7,1102.2,1297.7,1108.2,1315.7,1108.2z M1337.4,966.5c-19.1,0-37.5,40.1-45,77.2c28.9-1.9,54.4-30.7,54.4-61.9
		C1346.8,972.5,1344.6,966.5,1337.4,966.5z"/>
	<path d="M1461.5,950l-27,127.5c-1.1,4.9-1.5,8.6-1.5,12c0,10.5,4.9,13.9,15.4,13.9c14.6,0,28.1-14.2,33.7-33h15.7
		c-21.4,61.1-58.5,69.4-78.7,69.4c-22.5,0-40.1-13.5-40.1-45c0-7.1,1.1-15.4,3-24.4l25.5-120.3H1461.5z M1444.7,870.1
		c16.5,0,30,13.5,30,30c0,16.5-13.5,29.6-30,29.6c-16.5,0-29.6-13.1-29.6-29.6C1415,883.6,1428.2,870.1,1444.7,870.1z"/>
	<path d="M1669.2,982.6c-13.5,0-23.6,15.7-29.2,34.5l-25.5,120.3h-54l27.4-129.3c0.8-3,1.1-6,1.1-9.4c0-8.2-3-16.5-11.2-16.5
		c-14.6,0-24.7,16.1-30.4,34.9l-25.5,120.3h-54l39.7-187.4h54l-4.1,19.5c15.7-18,32.6-21.4,45.7-21.4c19.9,0,34.5,9,38.6,32.2
		c18-27.7,38.2-31.9,52.1-31.9c24,0,41.6,12.4,41.6,42.4c0,30.4-18,75.7-18,96.7c0,9.4,3.7,15.7,15,15.7c16.5,0,23.2-13.5,31.5-33
		h15.7c-21,61.5-49.9,69.4-69.7,69.4c-32.6,0-44.2-21-44.2-42.4c0-25.5,16.9-71.6,16.9-95.6C1682.7,989.3,1678.2,982.6,1669.2,982.6
		z"/>
	<path d="M1841.7,1108.2c29.6,0,47.6-16.5,66.4-37.9h12.7c-21.4,34.5-53.2,69.4-103.1,69.4c-35.2,0-58.5-17.2-58.5-59.6
		c0-43.1,24.4-133.5,101.2-133.5c33.4,0,41.2,17.2,41.2,36c0,43.1-41.2,76.5-86.2,79.1c-0.4,5.2-0.8,10.5-0.8,15
		C1814.7,1102.2,1823.7,1108.2,1841.7,1108.2z M1863.4,966.5c-19.1,0-37.5,40.1-45,77.2c28.9-1.9,54.4-30.7,54.4-61.9
		C1872.8,972.5,1870.5,966.5,1863.4,966.5z"/>
	<path d="M1987.5,950l-27,127.5c-1.1,4.9-1.5,8.6-1.5,12c0,10.5,4.9,13.9,15.4,13.9c6.7,0,9.7-1.1,12-2.2
		c-1.9,26.6-21,38.6-41.2,38.6c-22.5,0-40.1-13.5-40.1-45c0-7.1,1.1-15.4,3-24.4l25.5-120.3H1987.5z M1970.6,870.1
		c16.5,0,30,13.5,30,30c0,16.5-13.5,29.6-30,29.6c-16.5,0-29.6-13.1-29.6-29.6C1941,883.6,1954.1,870.1,1970.6,870.1z"/>
</g>
<g>
	<path d="M386.6,893.1c0-6.7,7.1-16.1,21-16.1c11.2,0,16.5,7.9,16.5,18c0,17.2-16.9,40.1-45.7,40.1H279l95.6-167.2h-21
		c-11.6,0-20.6,0.7-20.6,6c0,1.9,4.1-0.4,4.1,8.2c0,13.9-10.5,19.9-20.2,19.9c-8.6,0-17.2-5.6-17.2-16.5c0-15.4,16.9-37.9,43.5-37.9
		h96.3l-91.8,158.6c6.4,0.4,18.4,2.2,28.5,2.2c9,0,16.5-1.5,17.6-7.5C388.9,900.6,386.6,897.2,386.6,893.1z"/>
	<path d="M619.4,747.6l-27,127.5c-1.1,4.9-1.5,8.6-1.5,12c0,10.5,4.9,13.9,15.4,13.9c3.4,0,5.6-0.4,8.2-1.5
		c-10.1,26.2-17.2,37.9-37.5,37.9s-33.7-13.1-36.7-34.9c-11.2,17.2-29.2,34.9-55.9,34.9c-25.5,0-49.9-15.7-49.9-60.4
		c0-50.6,31.1-131.2,96.3-131.2c21.4,0,30.4,8.2,30.4,19.1v2.6l4.1-19.9H619.4z M490.1,871.7c0,28.9,12,29.2,18.7,29.2
		c10.9,0,26.6-11.2,31.1-33l18-84.7c0-4.5-3.4-14.2-15.4-14.2C510.7,769,490.1,836.5,490.1,871.7z M726.3,893.1
		c0-6.7,7.1-16.1,21-16.1c11.2,0,16.5,7.9,16.5,18c0,17.2-16.9,40.1-45.7,40.1h-99.3l95.6-167.2h-21c-11.6,0-20.6,0.7-20.6,6
		c0,1.9,4.1-0.4,4.1,8.2c0,13.9-10.5,19.9-20.2,19.9c-8.6,0-17.2-5.6-17.2-16.5c0-15.4,16.9-37.9,43.5-37.9h96.3l-91.8,158.6
		c6.4,0.4,18.4,2.2,28.5,2.2c9,0,16.5-1.5,17.6-7.5C728.5,900.6,726.3,897.2,726.3,893.1z"/>
	<path d="M959.1,747.6l-27,127.5c-1.1,4.9-1.5,8.6-1.5,12c0,10.5,4.9,16.1,15.4,16.1c14.6,0,24.7-16.5,30.4-35.2h15.7
		c-21.4,61.1-55.1,69.4-75.4,69.4c-21,0-34.5-12-36.7-34.5c-11.6,17.2-29.2,34.5-55.9,34.5c-25.5,0-49.9-15.7-49.9-60.4
		c0-50.6,31.1-131.2,96.3-131.2c21.4,0,30.4,8.2,30.4,19.1v2.6l4.1-19.9H959.1z M829.7,871.7c0,28.9,12,29.2,18.7,29.2
		c10.9,0,26.6-11.2,31.1-33l18-84.7c0-4.5-3.4-14.2-15.4-14.2C850.3,769,829.7,836.5,829.7,871.7z"/>
	<path d="M1163.4,780.2c-13.5,0-23.6,15.7-29.2,34.5l-25.5,120.3h-54l27.4-129.3c0.8-3,1.1-6,1.1-9.4c0-8.2-3-16.5-11.2-16.5
		c-14.6,0-24.7,16.1-30.4,34.9L1016,935.1h-54l39.7-187.4h54l-4.1,19.5c15.7-18,32.6-21.4,45.7-21.4c19.9,0,34.5,9,38.6,32.2
		c18-27.7,38.2-31.9,52.1-31.9c24,0,41.6,12.4,41.6,42.4c0,30.4-18,75.7-18,96.7c0,9.4,3.7,15.7,15,15.7c16.5,0,23.2-13.5,31.5-33
		h15.7c-21,61.5-49.9,69.4-69.7,69.4c-32.6,0-44.2-21-44.2-42.4c0-25.5,16.9-71.6,16.9-95.6C1176.9,787,1172.4,780.2,1163.4,780.2z"
		/>
	<path d="M1335.8,905.8c29.6,0,47.6-16.5,66.4-37.9h12.7c-21.4,34.5-53.2,69.4-103.1,69.4c-35.2,0-58.5-17.2-58.5-59.6
		c0-43.1,24.4-133.5,101.2-133.5c33.4,0,41.2,17.2,41.2,36c0,43.1-41.2,76.5-86.2,79.1c-0.4,5.2-0.8,10.5-0.8,15
		C1308.8,899.8,1317.8,905.8,1335.8,905.8z M1357.6,764.1c-19.1,0-37.5,40.1-45,77.2c28.9-1.9,54.4-30.7,54.4-61.9
		C1366.9,770.1,1364.7,764.1,1357.6,764.1z"/>
	<path d="M1481.7,747.6l-27,127.5c-1.1,4.9-1.5,8.6-1.5,12c0,10.5,4.9,13.9,15.4,13.9c14.6,0,28.1-14.2,33.7-33h15.7
		c-21.4,61.1-58.5,69.4-78.7,69.4c-22.5,0-40.1-13.5-40.1-45c0-7.1,1.1-15.4,3-24.4l25.5-120.3H1481.7z M1464.8,667.8
		c16.5,0,30,13.5,30,30c0,16.5-13.5,29.6-30,29.6c-16.5,0-29.6-13.1-29.6-29.6C1435.2,681.3,1448.3,667.8,1464.8,667.8z"/>
	<path d="M1689.3,780.2c-13.5,0-23.6,15.7-29.2,34.5l-25.5,120.3h-54l27.4-129.3c0.8-3,1.1-6,1.1-9.4c0-8.2-3-16.5-11.2-16.5
		c-14.6,0-24.7,16.1-30.4,34.9L1542,935.1h-54l39.7-187.4h54l-4.1,19.5c15.7-18,32.6-21.4,45.7-21.4c19.9,0,34.5,9,38.6,32.2
		c18-27.7,38.2-31.9,52.1-31.9c24,0,41.6,12.4,41.6,42.4c0,30.4-18,75.7-18,96.7c0,9.4,3.7,15.7,15,15.7c16.5,0,23.2-13.5,31.5-33
		h15.7c-21,61.5-49.9,69.4-69.7,69.4c-32.6,0-44.2-21-44.2-42.4c0-25.5,16.9-71.6,16.9-95.6C1702.8,787,1698.3,780.2,1689.3,780.2z"
		/>
	<path d="M1861.8,905.8c29.6,0,47.6-16.5,66.4-37.9h12.7c-21.4,34.5-53.2,69.4-103.1,69.4c-35.2,0-58.5-17.2-58.5-59.6
		c0-43.1,24.4-133.5,101.2-133.5c33.4,0,41.2,17.2,41.2,36c0,43.1-41.2,76.5-86.2,79.1c-0.4,5.2-0.8,10.5-0.8,15
		C1834.8,899.8,1843.8,905.8,1861.8,905.8z M1883.5,764.1c-19.1,0-37.5,40.1-45,77.2c28.9-1.9,54.4-30.7,54.4-61.9
		C1892.9,770.1,1890.7,764.1,1883.5,764.1z"/>
	<path d="M2007.6,747.6l-27,127.5c-1.1,4.9-1.5,8.6-1.5,12c0,10.5,4.9,13.9,15.4,13.9c6.7,0,9.7-1.1,12-2.2
		c-1.9,26.6-21,38.6-41.2,38.6c-22.5,0-40.1-13.5-40.1-45c0-7.1,1.1-15.4,3-24.4l25.5-120.3H2007.6z M1990.7,667.8
		c16.5,0,30,13.5,30,30c0,16.5-13.5,29.6-30,29.6c-16.5,0-29.6-13.1-29.6-29.6C1961.1,681.3,1974.2,667.8,1990.7,667.8z"/>
</g>
<g>
	<path d="M386.6,1326.2c0-6.7,7.1-16.1,21-16.1c11.2,0,16.5,7.9,16.5,18c0,17.2-16.9,40.1-45.7,40.1H279l95.6-167.2h-21
		c-11.6,0-20.6,0.8-20.6,6c0,1.9,4.1-0.4,4.1,8.2c0,13.9-10.5,19.9-20.2,19.9c-8.6,0-17.2-5.6-17.2-16.5c0-15.4,16.9-37.9,43.5-37.9
		h96.3l-91.8,158.6c6.4,0.4,18.4,2.2,28.5,2.2c9,0,16.5-1.5,17.6-7.5C388.9,1333.7,386.6,1330.3,386.6,1326.2z"/>
	<path d="M619.4,1180.8l-27,127.5c-1.1,4.9-1.5,8.6-1.5,12c0,10.5,4.9,13.9,15.4,13.9c3.4,0,5.6-0.4,8.2-1.5
		c-10.1,26.2-17.2,37.9-37.5,37.9s-33.7-13.1-36.7-34.9c-11.2,17.2-29.2,34.9-55.9,34.9c-25.5,0-49.9-15.7-49.9-60.4
		c0-50.6,31.1-131.2,96.3-131.2c21.4,0,30.4,8.2,30.4,19.1v2.6l4.1-19.9H619.4z M490.1,1304.8c0,28.9,12,29.2,18.7,29.2
		c10.9,0,26.6-11.2,31.1-33l18-84.7c0-4.5-3.4-14.2-15.4-14.2C510.7,1202.1,490.1,1269.6,490.1,1304.8z M726.3,1326.2
		c0-6.7,7.1-16.1,21-16.1c11.2,0,16.5,7.9,16.5,18c0,17.2-16.9,40.1-45.7,40.1h-99.3l95.6-167.2h-21c-11.6,0-20.6,0.8-20.6,6
		c0,1.9,4.1-0.4,4.1,8.2c0,13.9-10.5,19.9-20.2,19.9c-8.6,0-17.2-5.6-17.2-16.5c0-15.4,16.9-37.9,43.5-37.9h96.3l-91.8,158.6
		c6.4,0.4,18.4,2.2,28.5,2.2c9,0,16.5-1.5,17.6-7.5C728.5,1333.7,726.3,1330.3,726.3,1326.2z"/>
	<path d="M959.1,1180.8l-27,127.5c-1.1,4.9-1.5,8.6-1.5,12c0,10.5,4.9,16.1,15.4,16.1c14.6,0,24.7-16.5,30.4-35.2h15.7
		c-21.4,61.1-55.1,69.4-75.4,69.4c-21,0-34.5-12-36.7-34.5c-11.6,17.2-29.2,34.5-55.9,34.5c-25.5,0-49.9-15.7-49.9-60.4
		c0-50.6,31.1-131.2,96.3-131.2c21.4,0,30.4,8.2,30.4,19.1v2.6l4.1-19.9H959.1z M829.7,1304.8c0,28.9,12,29.2,18.7,29.2
		c10.9,0,26.6-11.2,31.1-33l18-84.7c0-4.5-3.4-14.2-15.4-14.2C850.3,1202.1,829.7,1269.6,829.7,1304.8z"/>
	<path d="M1163.4,1213.4c-13.5,0-23.6,15.7-29.2,34.5l-25.5,120.3h-54l27.4-129.3c0.8-3,1.1-6,1.1-9.4c0-8.2-3-16.5-11.2-16.5
		c-14.6,0-24.7,16.1-30.4,34.9l-25.5,120.3h-54l39.7-187.4h54l-4.1,19.5c15.7-18,32.6-21.4,45.7-21.4c19.9,0,34.5,9,38.6,32.2
		c18-27.7,38.2-31.9,52.1-31.9c24,0,41.6,12.4,41.6,42.4c0,30.4-18,75.7-18,96.7c0,9.4,3.7,15.7,15,15.7c16.5,0,23.2-13.5,31.5-33
		h15.7c-21,61.5-49.9,69.4-69.7,69.4c-32.6,0-44.2-21-44.2-42.4c0-25.5,16.9-71.6,16.9-95.6
		C1176.9,1220.1,1172.4,1213.4,1163.4,1213.4z"/>
	<path d="M1335.8,1339c29.6,0,47.6-16.5,66.4-37.9h12.7c-21.4,34.5-53.2,69.4-103.1,69.4c-35.2,0-58.5-17.2-58.5-59.6
		c0-43.1,24.4-133.5,101.2-133.5c33.4,0,41.2,17.2,41.2,36c0,43.1-41.2,76.5-86.2,79.1c-0.4,5.2-0.8,10.5-0.8,15
		C1308.8,1333,1317.8,1339,1335.8,1339z M1357.6,1197.2c-19.1,0-37.5,40.1-45,77.2c28.9-1.9,54.4-30.7,54.4-61.9
		C1366.9,1203.2,1364.7,1197.2,1357.6,1197.2z"/>
	<path d="M1481.7,1180.8l-27,127.5c-1.1,4.9-1.5,8.6-1.5,12c0,10.5,4.9,13.9,15.4,13.9c14.6,0,28.1-14.2,33.7-33h15.7
		c-21.4,61.1-58.5,69.4-78.7,69.4c-22.5,0-40.1-13.5-40.1-45c0-7.1,1.1-15.4,3-24.4l25.5-120.3H1481.7z M1464.8,1100.9
		c16.5,0,30,13.5,30,30c0,16.5-13.5,29.6-30,29.6c-16.5,0-29.6-13.1-29.6-29.6C1435.2,1114.4,1448.3,1100.9,1464.8,1100.9z"/>
	<path d="M1689.3,1213.4c-13.5,0-23.6,15.7-29.2,34.5l-25.5,120.3h-54l27.4-129.3c0.8-3,1.1-6,1.1-9.4c0-8.2-3-16.5-11.2-16.5
		c-14.6,0-24.7,16.1-30.4,34.9l-25.5,120.3h-54l39.7-187.4h54l-4.1,19.5c15.7-18,32.6-21.4,45.7-21.4c19.9,0,34.5,9,38.6,32.2
		c18-27.7,38.2-31.9,52.1-31.9c24,0,41.6,12.4,41.6,42.4c0,30.4-18,75.7-18,96.7c0,9.4,3.7,15.7,15,15.7c16.5,0,23.2-13.5,31.5-33
		h15.7c-21,61.5-49.9,69.4-69.7,69.4c-32.6,0-44.2-21-44.2-42.4c0-25.5,16.9-71.6,16.9-95.6
		C1702.8,1220.1,1698.3,1213.4,1689.3,1213.4z"/>
	<path d="M1861.8,1339c29.6,0,47.6-16.5,66.4-37.9h12.7c-21.4,34.5-53.2,69.4-103.1,69.4c-35.2,0-58.5-17.2-58.5-59.6
		c0-43.1,24.4-133.5,101.2-133.5c33.4,0,41.2,17.2,41.2,36c0,43.1-41.2,76.5-86.2,79.1c-0.4,5.2-0.8,10.5-0.8,15
		C1834.8,1333,1843.8,1339,1861.8,1339z M1883.5,1197.2c-19.1,0-37.5,40.1-45,77.2c28.9-1.9,54.4-30.7,54.4-61.9
		C1892.9,1203.2,1890.7,1197.2,1883.5,1197.2z"/>
	<path d="M2007.6,1180.8l-27,127.5c-1.1,4.9-1.5,8.6-1.5,12c0,10.5,4.9,13.9,15.4,13.9c6.7,0,9.7-1.1,12-2.2
		c-1.9,26.6-21,38.6-41.2,38.6c-22.5,0-40.1-13.5-40.1-45c0-7.1,1.1-15.4,3-24.4l25.5-120.3H2007.6z M1990.7,1100.9
		c16.5,0,30,13.5,30,30c0,16.5-13.5,29.6-30,29.6s-29.6-13.1-29.6-29.6C1961.1,1114.4,1974.2,1100.9,1990.7,1100.9z"/>
</g>
<g>
	<path d="M386.6,1542.8c0-6.7,7.1-16.1,21-16.1c11.2,0,16.5,7.9,16.5,18c0,17.2-16.9,40.1-45.7,40.1H279l95.6-167.2h-21
		c-11.6,0-20.6,0.8-20.6,6c0,1.9,4.1-0.4,4.1,8.2c0,13.9-10.5,19.9-20.2,19.9c-8.6,0-17.2-5.6-17.2-16.5c0-15.4,16.9-37.9,43.5-37.9
		h96.3l-91.8,158.6c6.4,0.4,18.4,2.2,28.5,2.2c9,0,16.5-1.5,17.6-7.5C388.9,1550.3,386.6,1546.9,386.6,1542.8z"/>
	<path d="M619.4,1397.3l-27,127.5c-1.1,4.9-1.5,8.6-1.5,12c0,10.5,4.9,13.9,15.4,13.9c3.4,0,5.6-0.4,8.2-1.5
		c-10.1,26.2-17.2,37.9-37.5,37.9s-33.7-13.1-36.7-34.9c-11.2,17.2-29.2,34.9-55.9,34.9c-25.5,0-49.9-15.7-49.9-60.4
		c0-50.6,31.1-131.2,96.3-131.2c21.4,0,30.4,8.2,30.4,19.1v2.6l4.1-19.9H619.4z M490.1,1521.4c0,28.9,12,29.2,18.7,29.2
		c10.9,0,26.6-11.2,31.1-33l18-84.7c0-4.5-3.4-14.2-15.4-14.2C510.7,1418.7,490.1,1486.2,490.1,1521.4z M726.3,1542.8
		c0-6.7,7.1-16.1,21-16.1c11.2,0,16.5,7.9,16.5,18c0,17.2-16.9,40.1-45.7,40.1h-99.3l95.6-167.2h-21c-11.6,0-20.6,0.8-20.6,6
		c0,1.9,4.1-0.4,4.1,8.2c0,13.9-10.5,19.9-20.2,19.9c-8.6,0-17.2-5.6-17.2-16.5c0-15.4,16.9-37.9,43.5-37.9h96.3l-91.8,158.6
		c6.4,0.4,18.4,2.2,28.5,2.2c9,0,16.5-1.5,17.6-7.5C728.5,1550.3,726.3,1546.9,726.3,1542.8z"/>
	<path d="M959.1,1397.3l-27,127.5c-1.1,4.9-1.5,8.6-1.5,12c0,10.5,4.9,16.1,15.4,16.1c14.6,0,24.7-16.5,30.4-35.2h15.7
		c-21.4,61.1-55.1,69.4-75.4,69.4c-21,0-34.5-12-36.7-34.5c-11.6,17.2-29.2,34.5-55.9,34.5c-25.5,0-49.9-15.7-49.9-60.4
		c0-50.6,31.1-131.2,96.3-131.2c21.4,0,30.4,8.2,30.4,19.1v2.6l4.1-19.9H959.1z M829.7,1521.4c0,28.9,12,29.2,18.7,29.2
		c10.9,0,26.6-11.2,31.1-33l18-84.7c0-4.5-3.4-14.2-15.4-14.2C850.3,1418.7,829.7,1486.2,829.7,1521.4z"/>
	<path d="M1163.4,1429.9c-13.5,0-23.6,15.7-29.2,34.5l-25.5,120.3h-54l27.4-129.3c0.8-3,1.1-6,1.1-9.4c0-8.2-3-16.5-11.2-16.5
		c-14.6,0-24.7,16.1-30.4,34.9l-25.5,120.3h-54l39.7-187.4h54l-4.1,19.5c15.7-18,32.6-21.4,45.7-21.4c19.9,0,34.5,9,38.6,32.2
		c18-27.7,38.2-31.9,52.1-31.9c24,0,41.6,12.4,41.6,42.4c0,30.4-18,75.7-18,96.7c0,9.4,3.7,15.7,15,15.7c16.5,0,23.2-13.5,31.5-33
		h15.7c-21,61.5-49.9,69.4-69.7,69.4c-32.6,0-44.2-21-44.2-42.4c0-25.5,16.9-71.6,16.9-95.6
		C1176.9,1436.7,1172.4,1429.9,1163.4,1429.9z"/>
	<path d="M1335.8,1555.5c29.6,0,47.6-16.5,66.4-37.9h12.7c-21.4,34.5-53.2,69.4-103.1,69.4c-35.2,0-58.5-17.2-58.5-59.6
		c0-43.1,24.4-133.5,101.2-133.5c33.4,0,41.2,17.2,41.2,36c0,43.1-41.2,76.5-86.2,79.1c-0.4,5.2-0.8,10.5-0.8,15
		C1308.8,1549.5,1317.8,1555.5,1335.8,1555.5z M1357.6,1413.8c-19.1,0-37.5,40.1-45,77.2c28.9-1.9,54.4-30.7,54.4-61.9
		C1366.9,1419.8,1364.7,1413.8,1357.6,1413.8z"/>
	<path d="M1481.6,1397.3l-27,127.5c-1.1,4.9-1.5,8.6-1.5,12c0,10.5,4.9,13.9,15.4,13.9c14.6,0,28.1-14.2,33.7-33h15.7
		c-21.4,61.1-58.5,69.4-78.7,69.4c-22.5,0-40.1-13.5-40.1-45c0-7.1,1.1-15.4,3-24.4l25.5-120.3H1481.6z M1464.8,1317.5
		c16.5,0,30,13.5,30,30c0,16.5-13.5,29.6-30,29.6s-29.6-13.1-29.6-29.6C1435.2,1331,1448.3,1317.5,1464.8,1317.5z"/>
	<path d="M1689.3,1429.9c-13.5,0-23.6,15.7-29.2,34.5l-25.5,120.3h-54l27.4-129.3c0.8-3,1.1-6,1.1-9.4c0-8.2-3-16.5-11.2-16.5
		c-14.6,0-24.7,16.1-30.4,34.9l-25.5,120.3h-54l39.7-187.4h54l-4.1,19.5c15.7-18,32.6-21.4,45.7-21.4c19.9,0,34.5,9,38.6,32.2
		c18-27.7,38.2-31.9,52.1-31.9c24,0,41.6,12.4,41.6,42.4c0,30.4-18,75.7-18,96.7c0,9.4,3.7,15.7,15,15.7c16.5,0,23.2-13.5,31.5-33
		h15.7c-21,61.5-49.9,69.4-69.7,69.4c-32.6,0-44.2-21-44.2-42.4c0-25.5,16.9-71.6,16.9-95.6
		C1702.8,1436.7,1698.3,1429.9,1689.3,1429.9z"/>
	<path d="M1861.8,1555.5c29.6,0,47.6-16.5,66.4-37.9h12.7c-21.4,34.5-53.2,69.4-103.1,69.4c-35.2,0-58.5-17.2-58.5-59.6
		c0-43.1,24.4-133.5,101.2-133.5c33.4,0,41.2,17.2,41.2,36c0,43.1-41.2,76.5-86.2,79.1c-0.4,5.2-0.8,10.5-0.8,15
		C1834.8,1549.5,1843.8,1555.5,1861.8,1555.5z M1883.5,1413.8c-19.1,0-37.5,40.1-45,77.2c28.9-1.9,54.4-30.7,54.4-61.9
		C1892.9,1419.8,1890.7,1413.8,1883.5,1413.8z"/>
	<path d="M2007.6,1397.3l-27,127.5c-1.1,4.9-1.5,8.6-1.5,12c0,10.5,4.9,13.9,15.4,13.9c6.7,0,9.7-1.1,12-2.2
		c-1.9,26.6-21,38.6-41.2,38.6c-22.5,0-40.1-13.5-40.1-45c0-7.1,1.1-15.4,3-24.4l25.5-120.3H2007.6z M1990.7,1317.5
		c16.5,0,30,13.5,30,30c0,16.5-13.5,29.6-30,29.6s-29.6-13.1-29.6-29.6C1961.1,1331,1974.2,1317.5,1990.7,1317.5z"/>
</g>
</svg>
