<?xml version="1.0" encoding="utf-8"?>
<!-- Generator: Adobe Illustrator 22.1.0, SVG Export Plug-In . SVG Version: 6.00 Build 0)  -->
<svg version="1.1" id="Layer_1" xmlns="http://www.w3.org/2000/svg" xmlns:xlink="http://www.w3.org/1999/xlink" x="0px" y="0px"
	 viewBox="0 0 100 100" style="enable-background:new 0 0 100 100;" xml:space="preserve">
<style type="text/css">
	.st0{enable-background:new    ;}
	.st1{fill:none;}
	.st2{fill:#F7C953;}
</style>
<text transform="matrix(1 0 0 1 5.4215 1732.6633)" style="font-family:'ArialMT'; font-size:12px;">H</text>
<polygon class="st1" points="6.8,1503.6 12.8,1503.6 12.8,1503.6 "/>
<g>
	<rect x="0.3" y="-0.5" class="st2" width="100" height="100"/>
	<g>
		<g>
			<path d="M17.1,47.5c0-0.3,0.3-0.7,0.9-0.7c0.5,0,0.7,0.3,0.7,0.8c0,0.7-0.7,1.7-2,1.7h-4.3l4.2-7.3h-0.9c-0.5,0-0.9,0-0.9,0.3
				c0,0.1,0.2,0,0.2,0.4c0,0.6-0.5,0.9-0.9,0.9c-0.4,0-0.7-0.2-0.7-0.7c0-0.7,0.7-1.6,1.9-1.6h4.2l-4,6.9c0.3,0,0.8,0.1,1.2,0.1
				c0.4,0,0.7-0.1,0.8-0.3C17.2,47.8,17.1,47.7,17.1,47.5z"/>
			<path d="M27.2,41.2l-1.2,5.5c0,0.2-0.1,0.4-0.1,0.5c0,0.5,0.2,0.6,0.7,0.6c0.1,0,0.2,0,0.4-0.1c-0.4,1.1-0.7,1.6-1.6,1.6
				s-1.5-0.6-1.6-1.5c-0.5,0.7-1.3,1.5-2.4,1.5c-1.1,0-2.2-0.7-2.2-2.6c0-2.2,1.4-5.7,4.2-5.7c0.9,0,1.3,0.4,1.3,0.8V42l0.2-0.9
				L27.2,41.2L27.2,41.2z M21.6,46.6c0,1.3,0.5,1.3,0.8,1.3c0.5,0,1.2-0.5,1.4-1.4l0.8-3.7c0-0.2-0.1-0.6-0.7-0.6
				C22.5,42.1,21.6,45,21.6,46.6z M31.9,47.5c0-0.3,0.3-0.7,0.9-0.7c0.5,0,0.7,0.3,0.7,0.8c0,0.7-0.7,1.7-2,1.7h-4.3l4.2-7.3h-0.9
				c-0.5,0-0.9,0-0.9,0.3c0,0.1,0.2,0,0.2,0.4c0,0.6-0.5,0.9-0.9,0.9c-0.4,0-0.7-0.2-0.7-0.7c0-0.7,0.7-1.6,1.9-1.6h4.2l-4,6.9
				c0.3,0,0.8,0.1,1.2,0.1c0.4,0,0.7-0.1,0.8-0.3C32,47.8,31.9,47.7,31.9,47.5z"/>
			<path d="M42,41.2l-1.2,5.5c0,0.2-0.1,0.4-0.1,0.5c0,0.5,0.2,0.7,0.7,0.7c0.6,0,1.1-0.7,1.3-1.5h0.7c-0.9,2.7-2.4,3-3.3,3
				c-0.9,0-1.5-0.5-1.6-1.5c-0.5,0.7-1.3,1.5-2.4,1.5c-1.1,0-2.2-0.7-2.2-2.6c0-2.2,1.4-5.7,4.2-5.7c0.9,0,1.3,0.4,1.3,0.8V42
				l0.2-0.9H42z M36.4,46.6c0,1.3,0.5,1.3,0.8,1.3c0.5,0,1.2-0.5,1.4-1.4l0.8-3.7c0-0.2-0.1-0.6-0.7-0.6
				C37.3,42.1,36.4,45,36.4,46.6z"/>
			<path d="M50.9,42.6c-0.6,0-1,0.7-1.3,1.5l-1.1,5.2h-2.3l1.2-5.6c0-0.1,0-0.3,0-0.4c0-0.4-0.1-0.7-0.5-0.7c-0.6,0-1.1,0.7-1.3,1.5
				l-1.1,5.2h-2.3l1.7-8.1h2.3L46,42c0.7-0.8,1.4-0.9,2-0.9c0.9,0,1.5,0.4,1.7,1.4c0.8-1.2,1.7-1.4,2.3-1.4c1,0,1.8,0.5,1.8,1.8
				c0,1.3-0.8,3.3-0.8,4.2c0,0.4,0.2,0.7,0.7,0.7c0.7,0,1-0.6,1.4-1.4h0.7c-0.9,2.7-2.2,3-3,3c-1.4,0-1.9-0.9-1.9-1.8
				c0-1.1,0.7-3.1,0.7-4.2C51.5,42.9,51.3,42.6,50.9,42.6z"/>
			<path d="M58.4,48c1.3,0,2.1-0.7,2.9-1.6h0.6c-0.9,1.5-2.3,3-4.5,3c-1.5,0-2.5-0.7-2.5-2.6c0-1.9,1.1-5.8,4.4-5.8
				c1.5,0,1.8,0.7,1.8,1.6c0,1.9-1.8,3.3-3.7,3.4c0,0.2,0,0.5,0,0.7C57.2,47.8,57.6,48,58.4,48z M59.3,41.9c-0.8,0-1.6,1.7-2,3.4
				c1.3-0.1,2.4-1.3,2.4-2.7C59.7,42.1,59.7,41.9,59.3,41.9z"/>
			<path d="M64.7,41.2l-1.2,5.5c0,0.2-0.1,0.4-0.1,0.5c0,0.5,0.2,0.6,0.7,0.6c0.6,0,1.2-0.6,1.5-1.4h0.7c-0.9,2.7-2.5,3-3.4,3
				c-1,0-1.7-0.6-1.7-2c0-0.3,0-0.7,0.1-1.1l1.1-5.2L64.7,41.2L64.7,41.2z M64,37.7c0.7,0,1.3,0.6,1.3,1.3s-0.6,1.3-1.3,1.3
				c-0.7,0-1.3-0.6-1.3-1.3C62.7,38.3,63.3,37.7,64,37.7z"/>
			<path d="M73.8,42.6c-0.6,0-1,0.7-1.3,1.5l-1.1,5.2H69l1.2-5.6c0-0.1,0-0.3,0-0.4c0-0.4-0.1-0.7-0.5-0.7c-0.6,0-1.1,0.7-1.3,1.5
				l-1.1,5.2H65l1.7-8.1h2.3L68.9,42c0.7-0.8,1.4-0.9,2-0.9c0.9,0,1.5,0.4,1.7,1.4c0.8-1.2,1.7-1.4,2.3-1.4c1,0,1.8,0.5,1.8,1.8
				c0,1.3-0.8,3.3-0.8,4.2c0,0.4,0.2,0.7,0.7,0.7c0.7,0,1-0.6,1.4-1.4h0.7c-0.9,2.7-2.2,3-3,3c-1.4,0-1.9-0.9-1.9-1.8
				c0-1.1,0.7-3.1,0.7-4.2C74.4,42.9,74.2,42.6,73.8,42.6z"/>
			<path d="M81.3,48c1.3,0,2.1-0.7,2.9-1.6h0.6c-0.9,1.5-2.3,3-4.5,3c-1.5,0-2.5-0.7-2.5-2.6c0-1.9,1.1-5.8,4.4-5.8
				c1.5,0,1.8,0.7,1.8,1.6c0,1.9-1.8,3.3-3.7,3.4c0,0.2,0,0.5,0,0.7C80.1,47.8,80.5,48,81.3,48z M82.2,41.9c-0.8,0-1.6,1.7-2,3.4
				c1.3-0.1,2.4-1.3,2.4-2.7C82.6,42.1,82.5,41.9,82.2,41.9z"/>
			<path d="M87.6,41.2l-1.2,5.5c0,0.2-0.1,0.4-0.1,0.5c0,0.5,0.2,0.6,0.7,0.6c0.3,0,0.4,0,0.5-0.1c-0.1,1.2-0.9,1.7-1.8,1.7
				c-1,0-1.7-0.6-1.7-2c0-0.3,0-0.7,0.1-1.1l1.1-5.2L87.6,41.2L87.6,41.2z M86.9,37.7c0.7,0,1.3,0.6,1.3,1.3s-0.6,1.3-1.3,1.3
				c-0.7,0-1.3-0.6-1.3-1.3S86.2,37.7,86.9,37.7z"/>
		</g>
		<g>
			<path d="M17.1,35.2c0-0.3,0.3-0.7,0.9-0.7c0.5,0,0.7,0.3,0.7,0.8c0,0.7-0.7,1.7-2,1.7h-4.3l4.2-7.3h-0.9c-0.5,0-0.9,0-0.9,0.3
				c0,0.1,0.2,0,0.2,0.4c0,0.6-0.5,0.9-0.9,0.9c-0.4,0-0.7-0.2-0.7-0.7c0-0.7,0.7-1.6,1.9-1.6h4.2l-4,6.9c0.3,0,0.8,0.1,1.2,0.1
				c0.4,0,0.7-0.1,0.8-0.3C17.2,35.5,17.1,35.4,17.1,35.2z"/>
			<path d="M27.3,28.9l-1.2,5.5c0,0.2-0.1,0.4-0.1,0.5c0,0.5,0.2,0.6,0.7,0.6c0.1,0,0.2,0,0.4-0.1c-0.4,1.1-0.7,1.6-1.6,1.6
				s-1.5-0.6-1.6-1.5c-0.5,0.7-1.3,1.5-2.4,1.5c-1.1,0-2.2-0.7-2.2-2.6c0-2.2,1.4-5.7,4.2-5.7c0.9,0,1.3,0.4,1.3,0.8v0.1l0.2-0.9
				L27.3,28.9L27.3,28.9z M21.6,34.3c0,1.3,0.5,1.3,0.8,1.3c0.5,0,1.2-0.5,1.4-1.4l0.8-3.7c0-0.2-0.1-0.6-0.7-0.6
				C22.5,29.8,21.6,32.7,21.6,34.3z M31.9,35.2c0-0.3,0.3-0.7,0.9-0.7c0.5,0,0.7,0.3,0.7,0.8c0,0.7-0.7,1.7-2,1.7h-4.3l4.2-7.3h-0.9
				c-0.5,0-0.9,0-0.9,0.3c0,0.1,0.2,0,0.2,0.4c0,0.6-0.5,0.9-0.9,0.9c-0.4,0-0.7-0.2-0.7-0.7c0-0.7,0.7-1.6,1.9-1.6h4.2l-4,6.9
				c0.3,0,0.8,0.1,1.2,0.1c0.4,0,0.7-0.1,0.8-0.3C32,35.5,31.9,35.4,31.9,35.2z"/>
			<path d="M42,28.9l-1.2,5.5c0,0.2-0.1,0.4-0.1,0.5c0,0.5,0.2,0.7,0.7,0.7c0.6,0,1.1-0.7,1.3-1.5h0.7c-0.9,2.7-2.4,3-3.3,3
				c-0.9,0-1.5-0.5-1.6-1.5c-0.5,0.7-1.3,1.5-2.4,1.5c-1.1,0-2.2-0.7-2.2-2.6c0-2.2,1.4-5.7,4.2-5.7c0.9,0,1.3,0.4,1.3,0.8v0.1
				l0.2-0.9L42,28.9L42,28.9z M36.4,34.3c0,1.3,0.5,1.3,0.8,1.3c0.5,0,1.2-0.5,1.4-1.4l0.8-3.7c0-0.2-0.1-0.6-0.7-0.6
				C37.3,29.8,36.4,32.7,36.4,34.3z"/>
			<path d="M50.9,30.3c-0.6,0-1,0.7-1.3,1.5L48.5,37h-2.3l1.2-5.6c0-0.1,0-0.3,0-0.4c0-0.4-0.1-0.7-0.5-0.7c-0.6,0-1.1,0.7-1.3,1.5
				L44.5,37h-2.3l1.7-8.1h2.3L46,29.7c0.7-0.8,1.4-0.9,2-0.9c0.9,0,1.5,0.4,1.7,1.4c0.8-1.2,1.7-1.4,2.3-1.4c1,0,1.8,0.5,1.8,1.8
				c0,1.3-0.8,3.3-0.8,4.2c0,0.4,0.2,0.7,0.7,0.7c0.7,0,1-0.6,1.4-1.4h0.7c-0.9,2.7-2.2,3-3,3c-1.4,0-1.9-0.9-1.9-1.8
				c0-1.1,0.7-3.1,0.7-4.2C51.5,30.6,51.3,30.3,50.9,30.3z"/>
			<path d="M58.4,35.8c1.3,0,2.1-0.7,2.9-1.6h0.6c-0.9,1.5-2.3,3-4.5,3c-1.5,0-2.5-0.7-2.5-2.6c0-1.9,1.1-5.8,4.4-5.8
				c1.5,0,1.8,0.7,1.8,1.6c0,1.9-1.8,3.3-3.7,3.4c0,0.2,0,0.5,0,0.7C57.2,35.5,57.6,35.8,58.4,35.8z M59.3,29.6
				c-0.8,0-1.6,1.7-2,3.4c1.3-0.1,2.4-1.3,2.4-2.7C59.8,29.9,59.7,29.6,59.3,29.6z"/>
			<path d="M64.7,28.9l-1.2,5.5c0,0.2-0.1,0.4-0.1,0.5c0,0.5,0.2,0.6,0.7,0.6c0.6,0,1.2-0.6,1.5-1.4h0.7c-0.9,2.7-2.5,3-3.4,3
				c-1,0-1.7-0.6-1.7-2c0-0.3,0-0.7,0.1-1.1l1.1-5.2L64.7,28.9L64.7,28.9z M64,25.4c0.7,0,1.3,0.6,1.3,1.3c0,0.7-0.6,1.3-1.3,1.3
				s-1.3-0.6-1.3-1.3C62.7,26,63.3,25.4,64,25.4z"/>
			<path d="M73.8,30.3c-0.6,0-1,0.7-1.3,1.5L71.4,37H69l1.2-5.6c0-0.1,0-0.3,0-0.4c0-0.4-0.1-0.7-0.5-0.7c-0.6,0-1.1,0.7-1.3,1.5
				L67.4,37H65l1.7-8.1h2.3l-0.2,0.8c0.7-0.8,1.4-0.9,2-0.9c0.9,0,1.5,0.4,1.7,1.4c0.8-1.2,1.7-1.4,2.3-1.4c1,0,1.8,0.5,1.8,1.8
				c0,1.3-0.8,3.3-0.8,4.2c0,0.4,0.2,0.7,0.7,0.7c0.7,0,1-0.6,1.4-1.4h0.7c-0.9,2.7-2.2,3-3,3c-1.4,0-1.9-0.9-1.9-1.8
				c0-1.1,0.7-3.1,0.7-4.2C74.4,30.6,74.2,30.3,73.8,30.3z"/>
			<path d="M81.3,35.8c1.3,0,2.1-0.7,2.9-1.6h0.6c-0.9,1.5-2.3,3-4.5,3c-1.5,0-2.5-0.7-2.5-2.6c0-1.9,1.1-5.8,4.4-5.8
				c1.5,0,1.8,0.7,1.8,1.6c0,1.9-1.8,3.3-3.7,3.4c0,0.2,0,0.5,0,0.7C80.1,35.5,80.5,35.8,81.3,35.8z M82.2,29.6
				c-0.8,0-1.6,1.7-2,3.4c1.3-0.1,2.4-1.3,2.4-2.7C82.6,29.9,82.5,29.6,82.2,29.6z"/>
			<path d="M87.6,28.9l-1.2,5.5c0,0.2-0.1,0.4-0.1,0.5c0,0.5,0.2,0.6,0.7,0.6c0.3,0,0.4,0,0.5-0.1c-0.1,1.2-0.9,1.7-1.8,1.7
				c-1,0-1.7-0.6-1.7-2c0-0.3,0-0.7,0.1-1.1l1.1-5.2L87.6,28.9L87.6,28.9z M86.9,25.4c0.7,0,1.3,0.6,1.3,1.3c0,0.7-0.6,1.3-1.3,1.3
				s-1.3-0.6-1.3-1.3C85.6,26,86.2,25.4,86.9,25.4z"/>
		</g>
		<g>
			<path d="M17.1,59.5c0-0.3,0.3-0.7,0.9-0.7c0.5,0,0.7,0.3,0.7,0.8c0,0.7-0.7,1.7-2,1.7h-4.3l4.2-7.3h-0.9c-0.5,0-0.9,0-0.9,0.3
				c0,0.1,0.2,0,0.2,0.4c0,0.6-0.5,0.9-0.9,0.9c-0.4,0-0.7-0.2-0.7-0.7c0-0.7,0.7-1.6,1.9-1.6h4.2l-4,6.9c0.3,0,0.8,0.1,1.2,0.1
				c0.4,0,0.7-0.1,0.8-0.3C17.2,59.8,17.1,59.7,17.1,59.5z"/>
			<path d="M27.3,53.2l-1.2,5.5c0,0.2-0.1,0.4-0.1,0.5c0,0.5,0.2,0.6,0.7,0.6c0.1,0,0.2,0,0.4-0.1c-0.4,1.1-0.7,1.6-1.6,1.6
				s-1.5-0.6-1.6-1.5c-0.5,0.7-1.3,1.5-2.4,1.5c-1.1,0-2.2-0.7-2.2-2.6c0-2.2,1.4-5.7,4.2-5.7c0.9,0,1.3,0.4,1.3,0.8V54l0.2-0.9
				H27.3z M21.6,58.6c0,1.3,0.5,1.3,0.8,1.3c0.5,0,1.2-0.5,1.4-1.4l0.8-3.7c0-0.2-0.1-0.6-0.7-0.6C22.5,54.1,21.6,57,21.6,58.6z
				 M31.9,59.5c0-0.3,0.3-0.7,0.9-0.7c0.5,0,0.7,0.3,0.7,0.8c0,0.7-0.7,1.7-2,1.7h-4.3l4.2-7.3h-0.9c-0.5,0-0.9,0-0.9,0.3
				c0,0.1,0.2,0,0.2,0.4c0,0.6-0.5,0.9-0.9,0.9c-0.4,0-0.7-0.2-0.7-0.7c0-0.7,0.7-1.6,1.9-1.6h4.2l-4,6.9c0.3,0,0.8,0.1,1.2,0.1
				c0.4,0,0.7-0.1,0.8-0.3C32,59.8,31.9,59.7,31.9,59.5z"/>
			<path d="M42,53.2l-1.2,5.5c0,0.2-0.1,0.4-0.1,0.5c0,0.5,0.2,0.7,0.7,0.7c0.6,0,1.1-0.7,1.3-1.5h0.7c-0.9,2.7-2.4,3-3.3,3
				c-0.9,0-1.5-0.5-1.6-1.5c-0.5,0.7-1.3,1.5-2.4,1.5c-1.1,0-2.2-0.7-2.2-2.6c0-2.2,1.4-5.7,4.2-5.7c0.9,0,1.3,0.4,1.3,0.8V54
				l0.2-0.9H42z M36.4,58.6c0,1.3,0.5,1.3,0.8,1.3c0.5,0,1.2-0.5,1.4-1.4l0.8-3.7c0-0.2-0.1-0.6-0.7-0.6
				C37.3,54.1,36.4,57,36.4,58.6z"/>
			<path d="M50.9,54.6c-0.6,0-1,0.7-1.3,1.5l-1.1,5.2h-2.3l1.2-5.6c0-0.1,0-0.3,0-0.4c0-0.4-0.1-0.7-0.5-0.7c-0.6,0-1.1,0.7-1.3,1.5
				l-1.1,5.2h-2.3l1.7-8.1h2.3L46,54c0.7-0.8,1.4-0.9,2-0.9c0.9,0,1.5,0.4,1.7,1.4c0.8-1.2,1.7-1.4,2.3-1.4c1,0,1.8,0.5,1.8,1.8
				c0,1.3-0.8,3.3-0.8,4.2c0,0.4,0.2,0.7,0.7,0.7c0.7,0,1-0.6,1.4-1.4h0.7c-0.9,2.7-2.2,3-3,3c-1.4,0-1.9-0.9-1.9-1.8
				c0-1.1,0.7-3.1,0.7-4.2C51.5,54.9,51.3,54.6,50.9,54.6z"/>
			<path d="M58.4,60.1c1.3,0,2.1-0.7,2.9-1.6h0.6c-0.9,1.5-2.3,3-4.5,3c-1.5,0-2.5-0.7-2.5-2.6c0-1.9,1.1-5.8,4.4-5.8
				c1.5,0,1.8,0.7,1.8,1.6c0,1.9-1.8,3.3-3.7,3.4c0,0.2,0,0.5,0,0.7C57.2,59.8,57.6,60.1,58.4,60.1z M59.3,53.9
				c-0.8,0-1.6,1.7-2,3.4c1.3-0.1,2.4-1.3,2.4-2.7C59.8,54.1,59.7,53.9,59.3,53.9z"/>
			<path d="M64.7,53.2l-1.2,5.5c0,0.2-0.1,0.4-0.1,0.5c0,0.5,0.2,0.6,0.7,0.6c0.6,0,1.2-0.6,1.5-1.4h0.7c-0.9,2.7-2.5,3-3.4,3
				c-1,0-1.7-0.6-1.7-2c0-0.3,0-0.7,0.1-1.1l1.1-5.2L64.7,53.2L64.7,53.2z M64,49.7c0.7,0,1.3,0.6,1.3,1.3c0,0.7-0.6,1.3-1.3,1.3
				s-1.3-0.6-1.3-1.3C62.7,50.3,63.3,49.7,64,49.7z"/>
			<path d="M73.8,54.6c-0.6,0-1,0.7-1.3,1.5l-1.1,5.2H69l1.2-5.6c0-0.1,0-0.3,0-0.4c0-0.4-0.1-0.7-0.5-0.7c-0.6,0-1.1,0.7-1.3,1.5
				l-1.1,5.2H65l1.7-8.1h2.3L68.9,54c0.7-0.8,1.4-0.9,2-0.9c0.9,0,1.5,0.4,1.7,1.4c0.8-1.2,1.7-1.4,2.3-1.4c1,0,1.8,0.5,1.8,1.8
				c0,1.3-0.8,3.3-0.8,4.2c0,0.4,0.2,0.7,0.7,0.7c0.7,0,1-0.6,1.4-1.4h0.7c-0.9,2.7-2.2,3-3,3c-1.4,0-1.9-0.9-1.9-1.8
				c0-1.1,0.7-3.1,0.7-4.2C74.4,54.9,74.2,54.6,73.8,54.6z"/>
			<path d="M81.3,60.1c1.3,0,2.1-0.7,2.9-1.6h0.6c-0.9,1.5-2.3,3-4.5,3c-1.5,0-2.5-0.7-2.5-2.6c0-1.9,1.1-5.8,4.4-5.8
				c1.5,0,1.8,0.7,1.8,1.6c0,1.9-1.8,3.3-3.7,3.4c0,0.2,0,0.5,0,0.7C80.1,59.8,80.5,60.1,81.3,60.1z M82.2,53.9
				c-0.8,0-1.6,1.7-2,3.4c1.3-0.1,2.4-1.3,2.4-2.7C82.6,54.1,82.5,53.9,82.2,53.9z"/>
			<path d="M87.6,53.2l-1.2,5.5c0,0.2-0.1,0.4-0.1,0.5c0,0.5,0.2,0.6,0.7,0.6c0.3,0,0.4,0,0.5-0.1c-0.1,1.2-0.9,1.7-1.8,1.7
				c-1,0-1.7-0.6-1.7-2c0-0.3,0-0.7,0.1-1.1l1.1-5.2L87.6,53.2L87.6,53.2z M86.9,49.7c0.7,0,1.3,0.6,1.3,1.3c0,0.7-0.6,1.3-1.3,1.3
				s-1.3-0.6-1.3-1.3C85.6,50.3,86.2,49.7,86.9,49.7z"/>
		</g>
		<g>
			<path d="M17.1,71.7c0-0.3,0.3-0.7,0.9-0.7c0.5,0,0.7,0.3,0.7,0.8c0,0.7-0.7,1.7-2,1.7h-4.3l4.2-7.3h-0.9c-0.5,0-0.9,0-0.9,0.3
				c0,0.1,0.2,0,0.2,0.4c0,0.6-0.5,0.9-0.9,0.9c-0.4,0-0.7-0.2-0.7-0.7c0-0.7,0.7-1.6,1.9-1.6h4.2l-4,6.9c0.3,0,0.8,0.1,1.2,0.1
				c0.4,0,0.7-0.1,0.8-0.3C17.2,72,17.1,71.9,17.1,71.7z"/>
			<path d="M27.3,65.4l-1.2,5.5c0,0.2-0.1,0.4-0.1,0.5c0,0.5,0.2,0.6,0.7,0.6c0.1,0,0.2,0,0.4-0.1c-0.4,1.1-0.7,1.6-1.6,1.6
				s-1.5-0.6-1.6-1.5c-0.5,0.7-1.3,1.5-2.4,1.5c-1.1,0-2.2-0.7-2.2-2.6c0-2.2,1.4-5.7,4.2-5.7c0.9,0,1.3,0.4,1.3,0.8v0.1l0.2-0.9
				H27.3z M21.6,70.8c0,1.3,0.5,1.3,0.8,1.3c0.5,0,1.2-0.5,1.4-1.4l0.8-3.7c0-0.2-0.1-0.6-0.7-0.6C22.5,66.3,21.6,69.2,21.6,70.8z
				 M31.9,71.7c0-0.3,0.3-0.7,0.9-0.7c0.5,0,0.7,0.3,0.7,0.8c0,0.7-0.7,1.7-2,1.7h-4.3l4.2-7.3h-0.9c-0.5,0-0.9,0-0.9,0.3
				c0,0.1,0.2,0,0.2,0.4c0,0.6-0.5,0.9-0.9,0.9c-0.4,0-0.7-0.2-0.7-0.7c0-0.7,0.7-1.6,1.9-1.6h4.2l-4,6.9c0.3,0,0.8,0.1,1.2,0.1
				c0.4,0,0.7-0.1,0.8-0.3C32,72,31.9,71.9,31.9,71.7z"/>
			<path d="M42,65.4l-1.2,5.5c0,0.2-0.1,0.4-0.1,0.5c0,0.5,0.2,0.7,0.7,0.7c0.6,0,1.1-0.7,1.3-1.5h0.7c-0.9,2.7-2.4,3-3.3,3
				c-0.9,0-1.5-0.5-1.6-1.5c-0.5,0.7-1.3,1.5-2.4,1.5C35,73.6,34,72.9,34,71c0-2.2,1.4-5.7,4.2-5.7c0.9,0,1.3,0.4,1.3,0.8v0.1
				l0.2-0.9H42z M36.4,70.8c0,1.3,0.5,1.3,0.8,1.3c0.5,0,1.2-0.5,1.4-1.4l0.8-3.7c0-0.2-0.1-0.6-0.7-0.6
				C37.3,66.3,36.4,69.2,36.4,70.8z"/>
			<path d="M50.9,66.8c-0.6,0-1,0.7-1.3,1.5l-1.1,5.2h-2.3l1.2-5.6c0-0.1,0-0.3,0-0.4c0-0.4-0.1-0.7-0.5-0.7c-0.6,0-1.1,0.7-1.3,1.5
				l-1.1,5.2h-2.3l1.7-8.1h2.3L46,66.2c0.7-0.8,1.4-0.9,2-0.9c0.9,0,1.5,0.4,1.7,1.4c0.8-1.2,1.7-1.4,2.3-1.4c1,0,1.8,0.5,1.8,1.8
				c0,1.3-0.8,3.3-0.8,4.2c0,0.4,0.2,0.7,0.7,0.7c0.7,0,1-0.6,1.4-1.4h0.7c-0.9,2.7-2.2,3-3,3c-1.4,0-1.9-0.9-1.9-1.8
				c0-1.1,0.7-3.1,0.7-4.2C51.5,67.1,51.3,66.8,50.9,66.8z"/>
			<path d="M58.4,72.3c1.3,0,2.1-0.7,2.9-1.6h0.6c-0.9,1.5-2.3,3-4.5,3c-1.5,0-2.5-0.7-2.5-2.6c0-1.9,1.1-5.8,4.4-5.8
				c1.5,0,1.8,0.7,1.8,1.6c0,1.9-1.8,3.3-3.7,3.4c0,0.2,0,0.5,0,0.7C57.2,72,57.6,72.3,58.4,72.3z M59.3,66.1c-0.8,0-1.6,1.7-2,3.4
				c1.3-0.1,2.4-1.3,2.4-2.7C59.8,66.4,59.7,66.1,59.3,66.1z"/>
			<path d="M64.7,65.4l-1.2,5.5c0,0.2-0.1,0.4-0.1,0.5c0,0.5,0.2,0.6,0.7,0.6c0.6,0,1.2-0.6,1.5-1.4h0.7c-0.9,2.7-2.5,3-3.4,3
				c-1,0-1.7-0.6-1.7-2c0-0.3,0-0.7,0.1-1.1l1.1-5.2L64.7,65.4L64.7,65.4z M64,61.9c0.7,0,1.3,0.6,1.3,1.3c0,0.7-0.6,1.3-1.3,1.3
				s-1.3-0.6-1.3-1.3C62.7,62.5,63.3,61.9,64,61.9z"/>
			<path d="M73.8,66.8c-0.6,0-1,0.7-1.3,1.5l-1.1,5.2H69l1.2-5.6c0-0.1,0-0.3,0-0.4c0-0.4-0.1-0.7-0.5-0.7c-0.6,0-1.1,0.7-1.3,1.5
				l-1.1,5.2H65l1.7-8.1h2.3l-0.2,0.8c0.7-0.8,1.4-0.9,2-0.9c0.9,0,1.5,0.4,1.7,1.4c0.8-1.2,1.7-1.4,2.3-1.4c1,0,1.8,0.5,1.8,1.8
				c0,1.3-0.8,3.3-0.8,4.2c0,0.4,0.2,0.7,0.7,0.7c0.7,0,1-0.6,1.4-1.4h0.7c-0.9,2.7-2.2,3-3,3c-1.4,0-1.9-0.9-1.9-1.8
				c0-1.1,0.7-3.1,0.7-4.2C74.4,67.1,74.2,66.8,73.8,66.8z"/>
			<path d="M81.3,72.3c1.3,0,2.1-0.7,2.9-1.6h0.6c-0.9,1.5-2.3,3-4.5,3c-1.5,0-2.5-0.7-2.5-2.6c0-1.9,1.1-5.8,4.4-5.8
				c1.5,0,1.8,0.7,1.8,1.6c0,1.9-1.8,3.3-3.7,3.4c0,0.2,0,0.5,0,0.7C80.1,72,80.5,72.3,81.3,72.3z M82.2,66.1c-0.8,0-1.6,1.7-2,3.4
				c1.3-0.1,2.4-1.3,2.4-2.7C82.6,66.4,82.5,66.1,82.2,66.1z"/>
			<path d="M87.6,65.4l-1.2,5.5c0,0.2-0.1,0.4-0.1,0.5c0,0.5,0.2,0.6,0.7,0.6c0.3,0,0.4,0,0.5-0.1c-0.1,1.2-0.9,1.7-1.8,1.7
				c-1,0-1.7-0.6-1.7-2c0-0.3,0-0.7,0.1-1.1l1.1-5.2L87.6,65.4L87.6,65.4z M86.9,61.9c0.7,0,1.3,0.6,1.3,1.3c0,0.7-0.6,1.3-1.3,1.3
				s-1.3-0.6-1.3-1.3C85.6,62.5,86.2,61.9,86.9,61.9z"/>
		</g>
	</g>
</g>
</svg>
